<svg width="600" height="600" viewBox="0 0 600 600" fill="none" xmlns="http://www.w3.org/2000/svg">
  <path d="M448.264 151.675c-37.419-37.434-89.181-60.686-146.351-60.686-57.18 0-108.933 23.252-146.361 60.686-37.429 37.434-60.678 89.194-60.678 146.383 0 57.179 23.249 108.948 60.678 146.373 37.428 37.435 89.181 60.686 146.361 60.686 57.17 0 108.932-23.251 146.351-60.686 37.429-37.425 60.677-89.194 60.677-146.373 0-57.189-23.248-108.949-60.677-146.383" fill="url(#a)"/>
  <path d="M229.782 285.634c10.827-10.828 25.8-17.517 42.197-17.517 16.407 0 31.38 6.689 42.207 17.517l21.184-21.025L510.866 89.087l7.166-7.167c-6.211-6.212-17.677-7.168-33.119-1.281L208.435 187.045c-15.604 5.887-31.533 17.996-44.586 32.647l44.911 44.917z" fill="url(#b)"/>
  <path d="m208.742 391.237 21.175-21.188c-10.826-10.828-17.515-25.803-17.515-42.212 0-16.563 6.689-31.376 17.515-42.204l-21.175-21.025-44.91-44.917c-12.747 14.173-22.781 30.735-26.918 46.351L78.788 479.313c-4.3 15.769-1.758 28.518 5.886 36.164l8.285-8.286z" fill="url(#c)"/>
  <path d="m335.337 391.24-21.184-21.188c-10.827 10.838-25.8 17.528-42.197 17.528-16.569 0-31.38-6.69-42.207-17.528l-21.184 21.188L92.791 507.041l-8.285 8.276c7.644 7.646 20.229 10.197 36.148 5.897l51.925-14.173 161.325-43.962c15.604-4.301 32.173-14.335 46.344-26.922z" fill="url(#d)"/>
  <path d="M518.167 81.75 511 88.917 335.342 264.611l-21.184 21.178c10.836 10.838 17.524 25.804 17.524 42.213 0 16.562-6.688 31.375-17.524 42.213l21.184 21.178 44.911 44.917c14.648-13.054 26.755-28.986 32.651-44.439l97.943-254.844 8.438-21.981c5.896-15.454 5.093-27.084-1.118-33.296" fill="url(#e)"/>
  <path d="M314.322 285.637c-10.826-10.837-25.799-17.527-42.197-17.527-16.406 0-31.38 6.69-42.206 17.527-10.826 10.828-17.515 25.804-17.515 42.204 0 16.571 6.689 31.385 17.515 42.213s25.8 17.517 42.206 17.517c16.56 0 31.371-6.689 42.197-17.517 10.836-10.828 17.525-25.804 17.525-42.213 0-16.4-6.689-31.376-17.525-42.204" fill="#fff"/>
  <path d="M293.147 306.821a29.82 29.82 0 0 0-21.175-8.764 29.84 29.84 0 0 0-21.184 8.764 29.83 29.83 0 0 0-8.763 21.178 29.85 29.85 0 0 0 8.763 21.188 29.84 29.84 0 0 0 21.184 8.763 29.82 29.82 0 0 0 21.175-8.763 29.85 29.85 0 0 0 8.762-21.188 29.83 29.83 0 0 0-8.762-21.178" fill="#0909b9"/>
  <defs>
    <linearGradient id="a" x1="208.097" y1="391.878" x2="444.439" y2="155.571" gradientUnits="userSpaceOnUse">
      <stop stop-color="#ececfe"/>
      <stop offset="1" stop-color="#8d8dc2"/>
    </linearGradient>
    <linearGradient id="b" x1="341.008" y1="60.942" x2="341.008" y2="312.164" gradientUnits="userSpaceOnUse">
      <stop stop-color="#518fff"/>
      <stop offset="1" stop-color="#5f5ff1"/>
    </linearGradient>
    <linearGradient id="c" x1="153.225" y1="208.127" x2="153.225" y2="533.883" gradientUnits="userSpaceOnUse">
      <stop stop-color="#f95c5e"/>
      <stop offset="1" stop-color="#e1000f"/>
    </linearGradient>
    <linearGradient id="d" x1="232.387" y1="351.885" x2="232.387" y2="538.005" gradientUnits="userSpaceOnUse">
      <stop stop-color="#e1000f"/>
      <stop offset="1" stop-color="#881317"/>
    </linearGradient>
    <linearGradient id="e" x1="418.79" y1="57.982" x2="418.79" y2="434.934" gradientUnits="userSpaceOnUse">
      <stop stop-color="#5f5ff1"/>
      <stop offset="1" stop-color="#000091"/>
    </linearGradient>
  </defs>
</svg>
