<svg width="40" height="40" viewBox="0 0 40 40" fill="none" xmlns="http://www.w3.org/2000/svg"><defs><linearGradient id="a" x1="13.788" y1="38.252" x2="31.302" y2="5.327" gradientUnits="userSpaceOnUse" gradientTransform="translate(-1.262 -.948)"><stop stop-color="#0C008A"/><stop offset=".51" stop-color="#5F5FE0"/><stop offset="1" stop-color="#F4849A"/></linearGradient></defs><path style="fill:#fff" d="M19.408 6.634 8.752 12.786l.046 12.434 8.218 4.785v5.912h4.198v-5.912l8.984-4.68-.045-12.434z" transform="translate(-.582 -.138)scale(1.0568)"/><path d="M17.188.726a4.45 4.45 0 0 1 4.46.008l12.518 7.29a4.45 4.45 0 0 1 2.21 3.826l.053 14.483a4.45 4.45 0 0 1-2.224 3.868l-12.443 7.184a4.45 4.45 0 0 1-4.462-.008L4.785 30.09a4.45 4.45 0 0 1-2.21-3.827l-.053-14.484A4.45 4.45 0 0 1 4.746 7.91zm-8.436 12.06.046 12.434 8.218 4.785 1.334 4.136c.266.821 1.428.821 1.694 0l1.17-4.136 8.984-4.68-.045-12.434-10.745-6.257z" fill="url(#a)" style="fill:url(#a)" transform="translate(-.582 -.138)scale(1.0568)"/><path fill-rule="evenodd" clip-rule="evenodd" d="m19.747 14.88-4.727 2.727.02 5.495 4.749 2.767 4.728-2.73-.021-5.495z" fill="#e1000f"/></svg>
